<?xml version="1.0" encoding="UTF-8" standalone="no"?>
<!-- Created with Inkscape (http://www.inkscape.org/) -->
<svg
   xmlns:svg="http://www.w3.org/2000/svg"
   xmlns="http://www.w3.org/2000/svg"
   version="1.0"
   width="165"
   height="148"
   id="svg1318">
  <defs
     id="defs1320" />
  <g
     id="layer1">
    <g
       transform="translate(-240.3571,133.0664)"
       id="g1339">
      <path
         d="M 275.32214,-62.306889 L 258.90514,-12.396889 L 384.97514,-12.396889 L 291.73914,-112.21089 L 275.32214,-62.306889 z "
         style="fill:#ccffcc;stroke:#000000;stroke-width:0.79699999;stroke-miterlimit:10"
         id="path10" />
      <path
         d="M 291.73914,-112.21089 L 291.73514,-12.396889"
         style="fill:none;stroke:#000000;stroke-width:0.79699999;stroke-miterlimit:10"
         id="path14" />
      <path
         d="M 279.91514,-12.396889 C 279.91514,-21.466889 274.08914,-29.529889 265.47214,-32.361889"
         style="fill:none;stroke:#000000;stroke-width:0.79699999;stroke-miterlimit:10"
         id="path18" />
      <path
         d="M 284.50714,-29.499889 C 284.47114,-30.368889 284.43714,-31.735889 283.75914,-33.328889 C 283.40514,-34.215889 282.80314,-35.158889 281.51214,-35.158889 C 279.32814,-35.158889 278.14214,-32.373889 278.14214,-31.915889 C 278.14214,-31.753889 278.26914,-31.753889 278.32214,-31.753889 C 278.47814,-31.753889 278.47814,-31.787889 278.57114,-32.019889 C 278.94214,-33.119889 280.07514,-33.988889 281.29714,-33.988889 C 283.75914,-33.988889 284.11814,-31.238889 284.11814,-29.482889 C 284.11814,-28.370889 283.99114,-27.993889 283.88714,-27.640889 C 283.55114,-26.540889 282.96514,-24.344889 282.96514,-23.847889 C 282.96514,-23.708889 283.01814,-23.545889 283.15614,-23.545889 C 283.42314,-23.545889 283.58414,-24.130889 283.77614,-24.838889 C 284.20414,-26.401889 284.31014,-27.178889 284.40114,-27.889889 C 284.45314,-28.312889 285.46114,-31.237889 286.86214,-34.023889 C 286.98414,-34.306889 287.23314,-34.782889 287.23314,-34.840889 C 287.23314,-34.856889 287.21714,-34.978889 287.06014,-34.978889 C 287.02014,-34.978889 286.93314,-34.978889 286.89814,-34.908889 C 286.86214,-34.874889 286.24314,-33.670889 285.71014,-32.458889 C 285.44414,-31.857889 285.09114,-31.064889 284.50714,-29.499889 z "
         id="path22" />
      <path
         d="M 253.21814,-7.1428888 L 253.05614,-11.150889 L 252.68514,-11.150889 C 252.57414,-10.779889 252.29014,-10.566889 251.93714,-10.566889 C 251.78014,-10.566889 251.51514,-10.618889 251.24814,-10.722889 C 250.37914,-11.005889 249.49314,-11.151889 248.66014,-11.151889 C 247.20514,-11.151889 245.73514,-10.601889 244.63514,-9.6288888 C 243.39614,-8.5288888 242.72414,-6.8768888 242.72414,-4.9318888 C 242.72414,-3.2798888 243.25614,-1.7568888 244.16114,-0.74388881 C 245.22114,0.41011119 246.85314,1.0811112 248.60814,1.0811112 C 250.61114,1.0811112 252.36614,0.26411119 253.44214,-1.1728888 L 253.12514,-1.4898888 C 251.81614,-0.23388881 250.64614,0.30011119 249.17614,0.30011119 C 248.05814,0.30011119 247.06814,-0.053888811 246.30314,-0.72588881 C 245.33014,-1.5948888 244.78114,-3.1928888 244.78114,-5.1558888 C 244.78114,-8.3648888 246.42514,-10.438889 248.99614,-10.438889 C 250.01014,-10.438889 250.93114,-10.067889 251.63814,-9.3608888 C 252.20414,-8.7938888 252.47114,-8.2948888 252.80814,-7.1428888 L 253.21814,-7.1428888 L 253.21814,-7.1428888 z "
         id="path26" />
      <path
         d="M 402.98914,-2.4688888 C 402.19014,-2.5208888 402.01114,-2.6998888 401.39114,-4.0098888 L 396.97914,-14.081889 L 396.62514,-14.081889 L 392.93714,-5.3768888 C 391.80814,-2.7868888 391.59414,-2.5028888 390.74314,-2.4688888 L 390.74314,-2.1318888 L 394.25214,-2.1318888 L 394.25214,-2.4688888 C 393.40114,-2.4688888 393.04714,-2.6998888 393.04714,-3.1978888 C 393.04714,-3.4058888 393.10014,-3.6548888 393.18614,-3.8868888 L 394.00314,-5.9598888 L 398.64814,-5.9598888 L 399.37214,-4.2578888 C 399.58714,-3.7818888 399.71314,-3.3198888 399.71314,-3.0698888 C 399.71314,-2.6298888 399.41214,-2.4838888 398.46914,-2.4678888 L 398.46914,-2.1308888 L 402.99014,-2.1308888 L 402.99014,-2.4688888 L 402.98914,-2.4688888 z M 394.30414,-6.6908888 L 396.34214,-11.561889 L 398.39814,-6.6908888 L 394.30414,-6.6908888 z "
         id="path30" />
      <path
         d="M 284.03714,-131.00589 L 284.03714,-130.67089 C 285.52514,-130.58389 285.74114,-130.38589 285.74114,-129.07089 L 285.74114,-121.20589 C 285.74114,-119.89089 285.50814,-119.65989 284.03714,-119.60789 L 284.03714,-119.27189 L 289.95514,-119.27189 C 291.34014,-119.27189 292.59714,-119.64289 293.25114,-120.24489 C 293.89414,-120.81289 294.24714,-121.61189 294.24714,-122.46289 C 294.24714,-123.24589 293.92814,-123.95189 293.37814,-124.46789 C 292.84614,-124.94289 292.36414,-125.15689 291.21814,-125.44089 C 292.13914,-125.67189 292.51014,-125.84689 292.93214,-126.22389 C 293.37814,-126.61089 293.64514,-127.26589 293.64514,-127.99489 C 293.64514,-129.98189 292.06314,-131.00689 289.00014,-131.00689 L 284.03714,-131.00689 L 284.03714,-131.00589 z M 287.54614,-125.05189 C 289.26614,-125.05189 290.08214,-124.95989 290.72014,-124.69889 C 291.72814,-124.26989 292.20814,-123.56489 292.20814,-122.44689 C 292.20814,-121.48989 291.83714,-120.79489 291.12514,-120.38989 C 290.55914,-120.07089 289.83314,-119.92589 288.66414,-119.92589 C 287.79514,-119.92589 287.54614,-120.08889 287.54614,-120.65689 L 287.54614,-125.05189 z M 287.54614,-125.75889 L 287.54614,-129.81889 C 287.54614,-130.18989 287.66814,-130.35289 287.93414,-130.35289 L 288.71514,-130.35289 C 290.75414,-130.35289 291.83714,-129.49989 291.83714,-127.92589 C 291.83714,-126.54089 290.89314,-125.75889 289.23114,-125.75889 L 287.54614,-125.75889 z "
         id="path34" />
      <path
         d="M 262.98214,-11.770889 C 262.98214,-13.815889 261.32014,-15.477889 259.27514,-15.477889 C 257.23014,-15.477889 255.56914,-13.815889 255.56914,-11.770889 C 255.56914,-9.7268888 257.23114,-8.0638888 259.27514,-8.0638888 C 261.31914,-8.0638888 262.98214,-9.7258888 262.98214,-11.770889 z "
         style="fill:#ffffff;stroke:#000000;stroke-width:0.5;stroke-miterlimit:10"
         id="path38" />
      <path
         d="M 388.99314,-11.770889 C 388.99314,-13.815889 387.33114,-15.477889 385.28714,-15.477889 C 383.24314,-15.477889 381.58014,-13.815889 381.58014,-11.770889 C 381.58014,-9.7268888 383.24214,-8.0638888 385.28714,-8.0638888 C 387.33214,-8.0638888 388.99314,-9.7258888 388.99314,-11.770889 z "
         style="fill:#ffffff;stroke:#000000;stroke-width:0.5;stroke-miterlimit:10"
         id="path42" />
      <path
         d="M 295.59614,-112.59889 C 295.59614,-114.64389 293.93414,-116.30589 291.89014,-116.30589 C 289.84614,-116.30589 288.18314,-114.64389 288.18314,-112.59889 C 288.18314,-110.55489 289.84514,-108.89189 291.89014,-108.89189 C 293.93414,-108.89189 295.59614,-110.55489 295.59614,-112.59889 z "
         style="fill:#ffffff;stroke:#000000;stroke-width:0.5;stroke-miterlimit:10"
         id="path46" />
      <path
         d="M 321.92814,0.83911119 C 321.94414,0.76311119 321.98014,0.66011119 321.98014,0.57211119 C 321.98014,0.39311119 321.80714,0.39311119 321.76514,0.39311119 C 321.74914,0.39311119 321.11114,0.44511119 320.79214,0.48011119 C 320.49114,0.49711119 320.22414,0.53211119 319.90614,0.55411119 C 319.48314,0.59011119 319.35614,0.60711119 319.35614,0.92511119 C 319.35614,1.1001112 319.53614,1.1001112 319.71014,1.1001112 C 320.61914,1.1001112 320.61914,1.2621112 320.61914,1.4411112 C 320.61914,1.5631112 320.47314,2.0791112 320.40414,2.3981112 L 319.97514,4.1001112 C 319.80214,4.8071112 318.78914,8.8331112 318.72014,9.1501112 C 318.63314,9.5901112 318.63314,9.8911112 318.63314,10.124111 C 318.63314,11.930111 319.64114,12.874111 320.79314,12.874111 C 322.84914,12.874111 324.97414,10.233111 324.97414,7.6611112 C 324.97414,6.0291112 324.05414,4.8761112 322.72814,4.8761112 C 321.80814,4.8761112 320.97314,5.6401112 320.63814,5.9931112 L 321.92814,0.83911119 z M 320.81114,12.516111 C 320.24314,12.516111 319.62314,12.094111 319.62314,10.709111 C 319.62314,10.125111 319.67514,9.7881112 319.99414,8.5481112 C 320.05214,8.3171112 320.33614,7.1811112 320.40514,6.9491112 C 320.44114,6.8101112 321.48314,5.2351112 322.69314,5.2351112 C 323.46914,5.2351112 323.82214,6.0101112 323.82214,6.9311112 C 323.82214,7.7821112 323.33014,9.7871112 322.88414,10.708111 C 322.44214,11.664111 321.62814,12.516111 320.81114,12.516111 z "
         id="path50" />
      <path
         d="M 263.86814,-65.034889 C 263.78114,-64.733889 263.78114,-64.698889 263.53214,-64.363889 C 263.14414,-63.864889 262.36314,-63.106889 261.52914,-63.106889 C 260.80414,-63.106889 260.39414,-63.761889 260.39414,-64.803889 C 260.39414,-65.782889 260.94414,-67.769889 261.28014,-68.510889 C 261.88214,-69.750889 262.71514,-70.386889 263.41014,-70.386889 C 264.58014,-70.386889 264.80514,-68.939889 264.80514,-68.793889 C 264.80514,-68.775889 264.75314,-68.544889 264.73714,-68.510889 L 263.86814,-65.034889 z M 265.00214,-69.574889 C 264.80514,-70.032889 264.33114,-70.744889 263.41014,-70.744889 C 261.40714,-70.744889 259.24214,-68.155889 259.24214,-65.532889 C 259.24214,-63.776889 260.27214,-62.746889 261.47614,-62.746889 C 262.45014,-62.746889 263.28314,-63.511889 263.78114,-64.095889 C 263.96114,-63.047889 264.78914,-62.746889 265.32214,-62.746889 C 265.85614,-62.746889 266.27814,-63.065889 266.60114,-63.706889 C 266.88614,-64.310889 267.12914,-65.386889 267.12914,-65.462889 C 267.12914,-65.549889 267.05914,-65.618889 266.95614,-65.618889 C 266.79314,-65.618889 266.77614,-65.532889 266.70614,-65.265889 C 266.43914,-64.217889 266.10314,-63.105889 265.37314,-63.105889 C 264.86514,-63.105889 264.82314,-63.563889 264.82314,-63.916889 C 264.82314,-64.327889 264.88114,-64.518889 265.03814,-65.213889 C 265.16514,-65.653889 265.25114,-66.046889 265.39114,-66.556889 C 266.05114,-69.215889 266.20814,-69.858889 266.20814,-69.962889 C 266.20814,-70.211889 266.01714,-70.408889 265.75014,-70.408889 C 265.18114,-70.409889 265.03814,-69.783889 265.00214,-69.574889 z "
         id="path54" />
      <path
         d="M 309.47114,-67.368889 C 309.48914,-67.444889 309.52414,-67.548889 309.52414,-67.635889 C 309.52414,-67.814889 309.34914,-67.814889 309.30914,-67.814889 C 309.29114,-67.814889 308.42314,-67.744889 308.33714,-67.727889 C 308.03614,-67.711889 307.76914,-67.675889 307.45014,-67.653889 C 307.01014,-67.617889 306.88214,-67.600889 306.88214,-67.282889 C 306.88214,-67.107889 307.02814,-67.107889 307.27714,-67.107889 C 308.14014,-67.107889 308.16314,-66.945889 308.16314,-66.766889 C 308.16314,-66.662889 308.12114,-66.523889 308.10514,-66.465889 L 305.53914,-56.201889 C 305.46314,-55.934889 305.46314,-55.900889 305.46314,-55.795889 C 305.46314,-55.408889 305.76414,-55.333889 305.94314,-55.333889 C 306.24614,-55.333889 306.47714,-55.564889 306.56314,-55.762889 L 307.36414,-58.970889 C 307.45014,-59.359889 307.55314,-59.729889 307.64714,-60.122889 C 307.83814,-60.863889 307.83814,-60.881889 308.17914,-61.397889 C 308.51514,-61.912889 309.30814,-62.972889 310.67614,-62.972889 C 311.38714,-62.972889 311.63114,-62.446889 311.63114,-61.733889 C 311.63114,-60.742889 310.94314,-58.809889 310.55514,-57.749889 C 310.39214,-57.320889 310.30614,-57.089889 310.30614,-56.770889 C 310.30614,-55.977889 310.85614,-55.333889 311.70714,-55.333889 C 313.35314,-55.333889 313.97214,-57.940889 313.97214,-58.049889 C 313.97214,-58.137889 313.90214,-58.205889 313.79714,-58.205889 C 313.63514,-58.205889 313.61714,-58.153889 313.53114,-57.852889 C 313.11914,-56.433889 312.46514,-55.692889 311.75814,-55.692889 C 311.57914,-55.692889 311.29614,-55.710889 311.29614,-56.277889 C 311.29614,-56.734889 311.50914,-57.302889 311.57914,-57.499889 C 311.89714,-58.350889 312.69714,-60.440889 312.69714,-61.467889 C 312.69714,-62.531889 312.07714,-63.331889 310.72814,-63.331889 C 309.72014,-63.331889 308.83514,-62.851889 308.10514,-61.930889 L 309.47114,-67.368889 z "
         id="path58" />
    </g>
  </g>
</svg>
